<?xml version="1.0" encoding="UTF-8"?>
<svg id="Layer_4" data-name="Layer 4" xmlns="http://www.w3.org/2000/svg" viewBox="0 0 250 250">
  <defs>
    <style>
      .cls-1 {
        fill: #231f20;
      }

      .cls-2, .cls-3 {
        fill: #fff;
      }

      .cls-4 {
        stroke-linecap: round;
        stroke-linejoin: round;
      }

      .cls-4, .cls-5 {
        fill: #d6b2d4;
        stroke: #231f20;
        stroke-width: 5px;
      }

      .cls-3 {
        opacity: .3;
      }

      .cls-5 {
        stroke-miterlimit: 10;
      }
    </style>
  </defs>
  <path class="cls-4" d="M97.65,96.05c-2.97,7.15-8.14,17.55-16.98,28.55-12.63,15.71-26.33,24.66-34.01,29.01,10.89-2.6,21.79-5.2,32.68-7.79-1.78,10.68-3.55,21.35-5.33,32.03,8.5-5.83,20.63-15.4,32.49-29.72,8.59-10.37,14.51-20.18,18.5-27.84l-27.35-24.23Z"/>
  <path class="cls-4" d="M152.35,96.22c2.97,7.15,8.14,17.55,16.98,28.55,12.63,15.71,26.33,24.66,34.01,29.01-10.89-2.6-21.79-5.2-32.68-7.79,1.78,10.68,3.55,21.35,5.33,32.03-8.5-5.83-20.63-15.4-32.49-29.72-8.59-10.37-14.51-20.18-18.5-27.84,9.12-8.08,18.24-16.15,27.35-24.23Z"/>
  <path class="cls-5" d="M111.96,121.29c-3.09.91-33,9.54-47.29,7.02-2.39-.42-6.44-1.19-9.44-4.56-3.11-3.49-3.44-7.91-3.45-9.9l1.74-30.45c.22-1.84,1-6.26,4.56-9.44,3.46-3.09,7.68-3.33,9.9-3.45,14.8-.84,44.58,21.03,46,22.09-.67,9.56-1.34,19.13-2.02,28.69Z"/>
  <path class="cls-5" d="M138.75,120.66c3.07.97,32.79,10.25,47.13,8.04,2.4-.37,6.46-1.05,9.54-4.35,3.19-3.42,3.61-7.83,3.66-9.82l-1.08-30.48c-.18-1.84-.86-6.28-4.35-9.54-3.4-3.16-7.61-3.49-9.82-3.66-14.78-1.16-45.02,20.06-46.47,21.09.47,9.58.93,19.15,1.4,28.73Z"/>
  <path class="cls-1" d="M83.66,89.74c9.2-.69,21.81,3.66,25.25,13.14,2.91,10.34-12.13,14.89-19.95,14.29-2.58-.15-5.12-.55-7.54-1.32,2.53-.34,4.97-.61,7.35-1.13,4.49-1,9.15-2.49,12.73-5.24,4.21-3.11,3.08-5.72.38-9-4.72-5.34-11.55-8.33-18.22-10.76h0Z"/>
  <path class="cls-1" d="M165.59,89.74c-6.67,2.42-13.5,5.41-18.22,10.76-2.7,3.28-3.83,5.88.38,9,3.58,2.74,8.24,4.24,12.73,5.24,2.38.52,4.82.79,7.35,1.13-2.42.77-4.96,1.16-7.54,1.32-7.81.6-22.87-3.95-19.95-14.3,3.44-9.49,16.04-13.83,25.25-13.14h0Z"/>
  <rect class="cls-5" x="105.04" y="78.78" width="37.36" height="48.27" rx="12" ry="12"/>
  <ellipse class="cls-3" cx="63.83" cy="81.79" rx="3.49" ry="4" transform="translate(-24.34 27.11) rotate(-20.22)"/>
  <ellipse class="cls-3" cx="62.98" cy="94.47" rx="3.49" ry="6.35"/>
  <ellipse class="cls-2" cx="66.05" cy="82.2" rx="3.49" ry="4" transform="translate(-24.34 27.9) rotate(-20.22)"/>
  <ellipse class="cls-2" cx="65.2" cy="94.88" rx="3.49" ry="6.35"/>
  <ellipse class="cls-2" cx="187.7" cy="81.79" rx="3.49" ry="4" transform="translate(-16.7 69.93) rotate(-20.22)"/>
  <ellipse class="cls-2" cx="186.85" cy="94.47" rx="3.49" ry="6.35"/>
  <ellipse class="cls-3" cx="185.66" cy="82.2" rx="3.49" ry="4" transform="translate(-16.97 69.25) rotate(-20.22)"/>
  <ellipse class="cls-3" cx="184.81" cy="94.88" rx="3.49" ry="6.35"/>
</svg>