<?xml version="1.0" encoding="UTF-8"?>
<svg id="Layer_6" data-name="Layer 6" xmlns="http://www.w3.org/2000/svg" viewBox="0 0 250 250">
  <defs>
    <style>
      .cls-1 {
        fill: #732a82;
      }

      .cls-2 {
        fill: #3f5eab;
      }

      .cls-3 {
        fill: #0a8140;
      }

      .cls-4 {
        fill: #fdec06;
      }

      .cls-5 {
        fill: #e31e26;
      }

      .cls-6 {
        fill: #f68c1f;
      }
    </style>
  </defs>
  <path class="cls-5" d="M230.78,84.67c-70.52,33.66-141.04-33.66-211.55,0v-18.7c70.52-33.66,141.04,33.66,211.55,0v18.7Z"/>
  <path class="cls-6" d="M230.78,103.37c-70.52,33.66-141.04-33.66-211.55,0v-18.7c70.52-33.66,141.04,33.66,211.55,0v18.7Z"/>
  <path class="cls-4" d="M230.78,122.07c-70.52,33.66-141.04-33.66-211.55,0v-18.7c70.52-33.66,141.04,33.66,211.55,0v18.7Z"/>
  <path class="cls-3" d="M230.78,140.77c-70.52,33.66-141.04-33.66-211.55,0v-18.7c70.52-33.66,141.04,33.66,211.55,0v18.7Z"/>
  <path class="cls-2" d="M230.78,159.47c-70.52,33.66-141.04-33.66-211.55,0v-18.7c70.52-33.66,141.04,33.66,211.55,0v18.7Z"/>
  <path class="cls-1" d="M230.78,178.17c-70.52,33.66-141.04-33.66-211.55,0v-18.7c70.52-33.66,141.04,33.66,211.55,0v18.7Z"/>
</svg>