<?xml version="1.0" encoding="UTF-8"?>
<svg id="Layer_7" data-name="Layer 7" xmlns="http://www.w3.org/2000/svg" viewBox="0 0 250 250">
  <defs>
    <style>
      .cls-1 {
        fill: #fff;
      }

      .cls-1, .cls-2, .cls-3 {
        stroke: #231f20;
        stroke-miterlimit: 10;
      }

      .cls-2 {
        fill: #f3af24;
      }

      .cls-3, .cls-4 {
        fill: #414042;
      }
    </style>
  </defs>
  <path class="cls-3" d="M183.94,180.41c-2.87,1.24-7.28-1.85-11.15-5.49v3.36c0,7.45-6.31,13.5-14.09,13.5h-64.86c-7.78,0-14.09-6.05-14.09-13.5v-75.9c0-24.38,20.62-44.16,46.08-44.16s46.96,20.15,46.96,45v23.45c8.39,12.6,11.51,23.7,12.85,31.03.72,4.03,3.68,20.39-1.7,22.71Z"/>
  <path class="cls-3" d="M66.08,155.61c2.24-7.16,7.06-18.56,18.41-30.61l16.44,9.89c-5.47,15.35-13.11,25.04-18.41,30.61-2.64,2.78-13.38,14.05-17.73,11.56-4.6-2.64.58-19.17,1.29-21.44Z"/>
  <path class="cls-1" d="M113.37,103.66c-7.26-7.12-16.82-9.79-23.47-6.5-7.79,3.86-10.11,14.72-10.15,20.43-.03,3.8-.05,7.61-.07,11.41-.07,15.92-.08,31.78-.02,47.58.03,8.41,6.87,15.2,15.28,15.2h54.74c.05-19.17.09-42.79.12-61.96,0-1.68.02-14.09.02-15.78,0-3.51-2.95-12.68-10.4-16.6-7.41-3.9-18-1.42-26.07,6.22Z"/>
  <circle class="cls-4" cx="96.55" cy="121.96" r="4.38"/>
  <circle class="cls-4" cx="124.91" cy="121.96" r="4.38"/>
  <path class="cls-2" d="M113.78,129.16l-4.22-5.09c-.37-.45-1.04-.51-1.49-.14l-7.71,6.39c-.81.67-.25,1.99.79,1.87l11.93-1.3c.84-.09,1.24-1.08.7-1.73Z"/>
</svg>