<?xml version="1.0" encoding="UTF-8"?>
<svg id="Layer_3" data-name="Layer 3" xmlns="http://www.w3.org/2000/svg" viewBox="0 0 250 250">
  <defs>
    <style>
      .cls-1 {
        fill: none;
        stroke-linecap: round;
      }

      .cls-1, .cls-2, .cls-3 {
        stroke: #231f20;
        stroke-miterlimit: 10;
      }

      .cls-4 {
        fill: #231f20;
      }

      .cls-2 {
        fill: #fff;
      }

      .cls-3 {
        fill: #fbb040;
      }
    </style>
  </defs>
  <path class="cls-2" d="M100,61.4c0-13.81,11.19-25,25-25s25,11.19,25,25-11.19,56-25,56-25-42.19-25-56Z"/>
  <path class="cls-2" d="M55.06,111.56c-11.17-8.12-13.65-23.75-5.53-34.92s23.75-13.65,34.92-5.53c11.17,8.12,38.73,41.97,30.61,53.14-8.12,11.17-48.83-4.58-60-12.69Z"/>
  <path class="cls-2" d="M80.87,183.59c-11.75,7.25-27.15,3.59-34.4-8.16-7.25-11.75-3.59-27.15,8.16-34.4,11.75-7.25,53.54-19.86,60.79-8.11,7.25,11.75-22.8,43.42-34.55,50.67Z"/>
  <path class="cls-2" d="M196.8,112.85c11.17-8.12,13.65-23.75,5.53-34.92s-23.75-13.65-34.92-5.53c-11.17,8.12-38.73,41.97-30.61,53.14,8.12,11.17,48.83-4.58,60-12.69Z"/>
  <path class="cls-2" d="M171,184.89c11.75,7.25,27.15,3.59,34.4-8.16,7.25-11.75,3.59-27.15-8.16-34.4-11.75-7.25-53.54-19.86-60.79-8.11-7.25,11.75,22.8,43.42,34.55,50.67Z"/>
  <path class="cls-2" d="M150,193.94c0,13.81-11.19,25-25,25-13.81,0-25-11.19-25-25,0-13.81,11.19-56,25-56s25,42.19,25,56Z"/>
  <circle class="cls-3" cx="125" cy="125" r="25"/>
  <path class="cls-1" d="M114.55,134.05c2.29,3.97,6.58,6.34,11.08,6.11,6.38-.33,9.6-5.72,9.82-6.11"/>
  <ellipse class="cls-4" cx="120.13" cy="121.27" rx="1.35" ry="2.37"/>
  <ellipse class="cls-4" cx="129.91" cy="121.27" rx="1.35" ry="2.37"/>
</svg>