<?xml version="1.0" encoding="UTF-8"?>
<svg id="Layer_5" data-name="Layer 5" xmlns="http://www.w3.org/2000/svg" viewBox="0 0 250 250">
  <defs>
    <style>
      .cls-1, .cls-2 {
        fill: #f15d5f;
        stroke-miterlimit: 10;
      }

      .cls-1, .cls-2, .cls-3, .cls-4 {
        stroke: #231f20;
      }

      .cls-5 {
        fill: #fff;
      }

      .cls-2, .cls-3, .cls-4 {
        stroke-width: 2px;
      }

      .cls-3 {
        fill: #8dc63f;
      }

      .cls-3, .cls-4 {
        stroke-linecap: round;
        stroke-linejoin: round;
      }

      .cls-4 {
        fill: #77a03f;
      }
    </style>
  </defs>
  <path class="cls-3" d="M117.72,116.83h14.57v105.4c0,4.21-3.42,7.62-7.62,7.62h-.22c-3.71,0-6.73-3.01-6.73-6.73v-106.3h0Z"/>
  <ellipse class="cls-1" cx="125" cy="48.1" rx="26.61" ry="31.54"/>
  <path class="cls-2" d="M165,101.06c-21.01,21.05-59.02,21.03-80,0-26.07-26.13-15.7-74.48,0-80,11.39-4,28.1,13.65,40.05,28.76,11.98-15.17,28.61-32.73,39.95-28.76,15.67,5.5,26.09,53.87,0,80Z"/>
  <path class="cls-5" d="M99.79,109.78c-17.38-8.41-28.04-25.04-29.51-44.17-1.65-14.11.77-34.2,13.21-43.1,8.26-5.41,19.4,4.35,24.94,9.99,4.19,4.49,8.6,9.18,11.94,14.22-6.76-6.76-25.23-29.33-35.78-22.44-11.8,8.51-14.41,27.58-13.02,41.21,1.6,20.47,11.13,34.37,28.21,44.3h0Z"/>
  <path class="cls-5" d="M127.11,50.09c6.34-8.45,29.24-37.57,40.5-25.56.33.47.65.95.95,1.42.03.05.02.11-.03.14-.04.03-.1.02-.13-.02-6.34-7.13-16.63,1.11-22.45,5.38-6.82,5.59-12.98,12.02-18.67,18.76-.07.1-.24-.02-.16-.12h0Z"/>
  <path class="cls-5" d="M105.85,27.3c5.09-6.04,13-11.87,21.33-9.97.1.02.11.17,0,.2-3.88,1.18-7.56,1.97-11.3,3.38-3.63,1.55-6.96,3.85-9.89,6.52-.08.08-.23-.04-.15-.14h0Z"/>
  <path class="cls-4" d="M122.13,171.07c11.78,27.59,4.37,52.74,1.99,59.89-6.82-3.22-30.11-15.27-41.89-42.86-11.78-27.59-4.37-52.74-1.99-59.89,6.82,3.22,30.11,15.27,41.89,42.86Z"/>
  <path class="cls-4" d="M126.84,184.43c-9.2,21.54-3.86,41-2.13,46.53,5.19-2.58,22.94-12.17,32.13-33.72,9.2-21.54,3.86-41,2.13-46.53-5.19,2.58-22.94,12.17-32.13,33.72Z"/>
</svg>